<svg width="19" height="19" viewBox="0 0 19 19" fill="none" xmlns="http://www.w3.org/2000/svg">
<path d="M16.1382 13.6671L18.2693 11.4728C18.858 10.8666 18.8438 9.89882 18.2376 9.3101L9.46043 0.785758C8.85426 0.197045 7.89194 0.216518 7.30322 0.822695L5.17214 3.017C5.77291 3.60579 5.78431 4.57093 5.19826 5.17437C4.60955 5.78054 3.64174 5.79469 3.03831 5.20864L0.904478 7.40028C0.315765 8.00646 0.32991 8.97426 0.936086 9.56297L9.7133 18.0873C10.3195 18.676 11.2873 18.6619 11.876 18.0557L14.0071 15.8614C13.4009 15.2727 13.3868 14.3049 13.9755 13.6987C14.5642 13.0925 15.532 13.0784 16.1382 13.6671ZM7.2052 12.9865L6.10805 11.9209L7.17359 10.8238L8.27074 11.8893L7.2052 12.9865ZM9.60267 10.5179L8.50552 9.45234L9.57106 8.35519L10.6682 9.42073L9.60267 10.5179ZM12.0001 8.04929L10.903 6.98375L11.9685 5.8866L13.0657 6.95214L12.0001 8.04929Z" fill="#3B97D3"/>
</svg>
