<svg width="12" height="19" viewBox="0 0 12 19" fill="none" xmlns="http://www.w3.org/2000/svg">
<path d="M6.01997 0.73877C2.74402 0.73877 0.0859375 3.23647 0.0859375 6.31416C0.0859375 11.2701 6.01997 18.0844 6.01997 18.0844C6.01997 18.0844 11.954 11.2701 11.954 6.31416C11.954 3.23647 9.29593 0.73877 6.01997 0.73877ZM6.01997 9.41159C5.55052 9.41159 5.0916 9.26626 4.70126 8.99398C4.31093 8.7217 4.00669 8.3347 3.82704 7.88191C3.64739 7.42913 3.60038 6.9309 3.69197 6.45022C3.78355 5.96954 4.00962 5.52802 4.34158 5.18147C4.67353 4.83492 5.09647 4.59892 5.55691 4.50331C6.01734 4.40769 6.4946 4.45677 6.92832 4.64432C7.36204 4.83187 7.73275 5.14947 7.99356 5.55697C8.25438 5.96447 8.39359 6.44355 8.39359 6.93364C8.3929 7.59062 8.1426 8.22048 7.69761 8.68503C7.25262 9.14958 6.64929 9.41088 6.01997 9.41159Z" fill="white"/>
</svg>
